<mxfile host="app.diagrams.net" agent="Mozilla/5.0 (Windows NT 10.0; Win64; x64) AppleWebKit/537.36 (KHTML, like Gecko) Chrome/133.0.0.0 Safari/537.36" version="26.1.0">
  <diagram name="Page-1" id="HyuIzGv5z0ODQZiv6KNc">
    <mxGraphModel dx="794" dy="412" grid="1" gridSize="10" guides="1" tooltips="1" connect="1" arrows="1" fold="1" page="1" pageScale="1" pageWidth="850" pageHeight="1100" math="0" shadow="0">
      <root>
        <mxCell id="0" />
        <mxCell id="1" parent="0" />
        <mxCell id="KMOSmgTqwzwwHoozK_6U-1" value="&lt;b&gt;Termék&lt;/b&gt;" style="rounded=0;whiteSpace=wrap;html=1;strokeWidth=2;" parent="1" vertex="1">
          <mxGeometry x="70" y="120" width="120" height="60" as="geometry" />
        </mxCell>
        <mxCell id="KMOSmgTqwzwwHoozK_6U-2" value="&lt;b&gt;Gyártó&lt;/b&gt;" style="rounded=0;whiteSpace=wrap;html=1;strokeWidth=2;" parent="1" vertex="1">
          <mxGeometry x="450" y="120" width="120" height="60" as="geometry" />
        </mxCell>
        <mxCell id="KMOSmgTqwzwwHoozK_6U-4" value="&lt;u&gt;Tkód&lt;/u&gt;" style="ellipse;whiteSpace=wrap;html=1;" parent="1" vertex="1">
          <mxGeometry y="220" width="75" height="40" as="geometry" />
        </mxCell>
        <mxCell id="KMOSmgTqwzwwHoozK_6U-5" value="Név" style="ellipse;whiteSpace=wrap;html=1;" parent="1" vertex="1">
          <mxGeometry x="92.5" y="220" width="75" height="40" as="geometry" />
        </mxCell>
        <mxCell id="KMOSmgTqwzwwHoozK_6U-6" value="Ear" style="ellipse;whiteSpace=wrap;html=1;" parent="1" vertex="1">
          <mxGeometry x="190" y="220" width="75" height="40" as="geometry" />
        </mxCell>
        <mxCell id="KMOSmgTqwzwwHoozK_6U-13" value="" style="group" parent="1" vertex="1" connectable="0">
          <mxGeometry x="350" y="220" width="265" height="40" as="geometry" />
        </mxCell>
        <mxCell id="KMOSmgTqwzwwHoozK_6U-10" value="&lt;u&gt;Adószám&lt;/u&gt;" style="ellipse;whiteSpace=wrap;html=1;" parent="KMOSmgTqwzwwHoozK_6U-13" vertex="1">
          <mxGeometry x="30" width="75" height="40" as="geometry" />
        </mxCell>
        <mxCell id="KMOSmgTqwzwwHoozK_6U-11" value="Név" style="ellipse;whiteSpace=wrap;html=1;" parent="KMOSmgTqwzwwHoozK_6U-13" vertex="1">
          <mxGeometry x="122.5" width="75" height="40" as="geometry" />
        </mxCell>
        <mxCell id="KMOSmgTqwzwwHoozK_6U-12" value="Telephely" style="ellipse;whiteSpace=wrap;html=1;" parent="KMOSmgTqwzwwHoozK_6U-13" vertex="1">
          <mxGeometry x="220" width="75" height="40" as="geometry" />
        </mxCell>
        <mxCell id="KMOSmgTqwzwwHoozK_6U-14" value="" style="endArrow=none;html=1;rounded=0;entryX=0.5;entryY=1;entryDx=0;entryDy=0;" parent="1" target="KMOSmgTqwzwwHoozK_6U-1" edge="1">
          <mxGeometry width="50" height="50" relative="1" as="geometry">
            <mxPoint x="43" y="220" as="sourcePoint" />
            <mxPoint x="92.5" y="180" as="targetPoint" />
          </mxGeometry>
        </mxCell>
        <mxCell id="KMOSmgTqwzwwHoozK_6U-15" value="" style="endArrow=none;html=1;rounded=0;entryX=0.5;entryY=1;entryDx=0;entryDy=0;exitX=0.5;exitY=0;exitDx=0;exitDy=0;" parent="1" source="KMOSmgTqwzwwHoozK_6U-10" target="KMOSmgTqwzwwHoozK_6U-2" edge="1">
          <mxGeometry width="50" height="50" relative="1" as="geometry">
            <mxPoint x="376" y="220" as="sourcePoint" />
            <mxPoint x="425.5" y="180" as="targetPoint" />
          </mxGeometry>
        </mxCell>
        <mxCell id="KMOSmgTqwzwwHoozK_6U-16" value="" style="endArrow=none;html=1;rounded=0;entryX=0.5;entryY=1;entryDx=0;entryDy=0;exitX=0.5;exitY=0;exitDx=0;exitDy=0;" parent="1" source="KMOSmgTqwzwwHoozK_6U-5" target="KMOSmgTqwzwwHoozK_6U-1" edge="1">
          <mxGeometry width="50" height="50" relative="1" as="geometry">
            <mxPoint x="105" y="230" as="sourcePoint" />
            <mxPoint x="155" y="180" as="targetPoint" />
          </mxGeometry>
        </mxCell>
        <mxCell id="KMOSmgTqwzwwHoozK_6U-17" value="" style="endArrow=none;html=1;rounded=0;entryX=0.5;entryY=1;entryDx=0;entryDy=0;exitX=0.5;exitY=0;exitDx=0;exitDy=0;" parent="1" source="KMOSmgTqwzwwHoozK_6U-11" target="KMOSmgTqwzwwHoozK_6U-2" edge="1">
          <mxGeometry width="50" height="50" relative="1" as="geometry">
            <mxPoint x="452" y="220" as="sourcePoint" />
            <mxPoint x="452" y="180" as="targetPoint" />
          </mxGeometry>
        </mxCell>
        <mxCell id="KMOSmgTqwzwwHoozK_6U-19" value="" style="endArrow=none;html=1;rounded=0;entryX=0.5;entryY=1;entryDx=0;entryDy=0;exitX=0.424;exitY=0.033;exitDx=0;exitDy=0;exitPerimeter=0;" parent="1" source="KMOSmgTqwzwwHoozK_6U-12" target="KMOSmgTqwzwwHoozK_6U-2" edge="1">
          <mxGeometry width="50" height="50" relative="1" as="geometry">
            <mxPoint x="550" y="220" as="sourcePoint" />
            <mxPoint x="550" y="180" as="targetPoint" />
          </mxGeometry>
        </mxCell>
        <mxCell id="KMOSmgTqwzwwHoozK_6U-20" value="" style="endArrow=none;html=1;rounded=0;entryX=0.5;entryY=1;entryDx=0;entryDy=0;exitX=0.5;exitY=0;exitDx=0;exitDy=0;" parent="1" edge="1">
          <mxGeometry width="50" height="50" relative="1" as="geometry">
            <mxPoint x="227" y="220" as="sourcePoint" />
            <mxPoint x="130" y="180" as="targetPoint" />
          </mxGeometry>
        </mxCell>
        <mxCell id="KMOSmgTqwzwwHoozK_6U-21" value="T-Gy" style="rhombus;whiteSpace=wrap;html=1;strokeWidth=1;" parent="1" vertex="1">
          <mxGeometry x="280" y="110" width="80" height="80" as="geometry" />
        </mxCell>
        <mxCell id="KMOSmgTqwzwwHoozK_6U-22" value="" style="endArrow=none;html=1;rounded=0;exitX=1;exitY=0.5;exitDx=0;exitDy=0;entryX=0;entryY=0.5;entryDx=0;entryDy=0;startArrow=doubleBlock;startFill=1;" parent="1" source="KMOSmgTqwzwwHoozK_6U-1" target="KMOSmgTqwzwwHoozK_6U-21" edge="1">
          <mxGeometry width="50" height="50" relative="1" as="geometry">
            <mxPoint x="230" y="190" as="sourcePoint" />
            <mxPoint x="280" y="140" as="targetPoint" />
          </mxGeometry>
        </mxCell>
        <mxCell id="KMOSmgTqwzwwHoozK_6U-23" value="" style="endArrow=classic;html=1;rounded=0;entryX=0;entryY=0.5;entryDx=0;entryDy=0;endFill=1;" parent="1" target="KMOSmgTqwzwwHoozK_6U-2" edge="1">
          <mxGeometry width="50" height="50" relative="1" as="geometry">
            <mxPoint x="360" y="150" as="sourcePoint" />
            <mxPoint x="392.5" y="149.5" as="targetPoint" />
          </mxGeometry>
        </mxCell>
      </root>
    </mxGraphModel>
  </diagram>
</mxfile>
